<svg width="92" height="92" viewBox="0 0 92 92" fill="none" xmlns="http://www.w3.org/2000/svg">
<path d="M46 51.5201C45.6007 51.5201 45.2024 51.4336 44.8325 51.2616L3.43252 31.9416C2.461 31.4889 1.84 30.5128 1.84 29.4401C1.84 28.3674 2.461 27.3913 3.43252 26.9386L44.8325 7.61861C45.5713 7.27361 46.4278 7.27361 47.1666 7.61861L88.5666 26.9386C89.539 27.3913 90.16 28.3674 90.16 29.4401C90.16 30.5128 89.539 31.4889 88.5675 31.9416L47.1675 51.2616C46.7976 51.4336 46.3993 51.5201 46 51.5201ZM11.1265 29.4401L46 45.714L80.8735 29.4401L46 13.1662L11.1265 29.4401ZM47.1675 67.8216L88.5675 48.5016C89.9484 47.8576 90.5455 46.2135 89.9015 44.8335C89.2556 43.4535 87.6134 42.8555 86.2334 43.4995L46 62.274L5.76748 43.4986C4.38472 42.8546 2.74436 43.4526 2.09944 44.8326C1.45544 46.2126 2.05252 47.8567 3.43344 48.5007L44.8334 67.8207C45.2024 67.9936 45.6007 68.0801 46 68.0801C46.3993 68.0801 46.7976 67.9936 47.1675 67.8216ZM47.1675 84.3816L88.5675 65.0616C89.9484 64.4176 90.5455 62.7735 89.9015 61.3935C89.2556 60.0163 87.6134 59.4183 86.2334 60.0595L46 78.834L5.76748 60.0586C4.38472 59.4174 2.74436 60.0154 2.09944 61.3926C1.45544 62.7726 2.05252 64.4167 3.43344 65.0607L44.8334 84.3807C45.2024 84.5536 45.6007 84.6401 46 84.6401C46.3993 84.6401 46.7976 84.5536 47.1675 84.3816Z" fill="#111111"/>
</svg>
