<svg width="81" height="81" viewBox="0 0 81 81" fill="none" xmlns="http://www.w3.org/2000/svg">
<path d="M40.994 80.5866C33.0836 80.5854 25.3512 78.2388 18.7743 73.8435C12.1975 69.4481 7.07151 63.2014 4.0445 55.8931C1.01749 48.5848 0.225367 40.5431 1.76828 32.7846C3.31119 25.0262 7.11984 17.8994 12.7127 12.3054C20.2504 4.98489 30.3658 0.92428 40.8729 1.00107C51.38 1.07786 61.435 5.28588 68.8649 12.7157C76.2947 20.1456 80.5027 30.2006 80.5795 40.7077C80.6563 51.2148 76.5957 61.3302 69.2752 68.8678C65.5701 72.594 61.1628 75.5483 56.3083 77.5598C51.4539 79.5713 46.2487 80.6001 40.994 80.5866ZM40.994 5.2741C21.5221 5.2741 5.68148 21.1147 5.68148 40.5866C5.68148 60.0585 21.5221 75.8991 40.994 75.8991C60.4659 75.8991 76.3065 60.0585 76.3065 40.5866C76.3065 21.1147 60.4659 5.2741 40.994 5.2741Z" fill="#111111" stroke="#111111" stroke-width="0.5"/>
<path d="M28.2096 62.6038C27.8683 62.6039 27.5311 62.5295 27.2215 62.3857C26.912 62.2419 26.6376 62.0323 26.4175 61.7714C26.1974 61.5106 26.0369 61.2048 25.9473 60.8754C25.8577 60.5461 25.8411 60.2012 25.8987 59.8648L28.1331 46.8366L18.6721 37.6179C18.3587 37.3127 18.137 36.9259 18.0321 36.5012C17.9271 36.0766 17.9431 35.631 18.0782 35.215C18.2133 34.7989 18.4622 34.429 18.7966 34.147C19.131 33.8651 19.5377 33.6823 19.9706 33.6194L33.0456 31.7194L38.8924 19.8726C39.086 19.4805 39.3854 19.1504 39.7568 18.9196C40.1282 18.6887 40.5567 18.5664 40.994 18.5664C41.4313 18.5664 41.8598 18.6887 42.2312 18.9196C42.6026 19.1504 42.902 19.4805 43.0956 19.8726L48.9424 31.7194L62.0174 33.6194C62.4503 33.6823 62.857 33.8651 63.1914 34.147C63.5258 34.429 63.7747 34.7989 63.9098 35.215C64.0449 35.631 64.0608 36.0766 63.9559 36.5012C63.8509 36.9259 63.6292 37.3127 63.3159 37.6179L53.8549 46.8366L56.0893 59.8585C56.1633 60.2896 56.1151 60.7328 55.9502 61.138C55.7854 61.5432 55.5105 61.8941 55.1565 62.1512C54.8026 62.4082 54.3838 62.5611 53.9475 62.5925C53.5112 62.6239 53.0748 62.5325 52.6877 62.3288L40.994 56.1866L29.3002 62.3351C28.9639 62.5117 28.5896 62.604 28.2096 62.6038ZM25.344 37.5788L32.2862 44.346C32.5585 44.6112 32.7623 44.9387 32.8799 45.3002C32.9975 45.6617 33.0254 46.0463 32.9612 46.421L31.3221 55.9757L39.9002 51.4648C40.2374 51.2869 40.6128 51.1939 40.994 51.1939C41.3752 51.1939 41.7506 51.2869 42.0877 51.4648L50.669 55.9757L49.0299 46.421C48.9657 46.0463 48.9936 45.6617 49.1112 45.3002C49.2288 44.9387 49.4326 44.6112 49.7049 44.346L56.6471 37.5788L47.0518 36.1851C46.6758 36.1303 46.3188 35.9848 46.0115 35.7614C45.7041 35.5379 45.4558 35.2431 45.2877 34.9023L40.994 26.2116L36.7034 34.9054C36.5353 35.2462 36.287 35.541 35.9797 35.7645C35.6723 35.988 35.3153 36.1334 34.9393 36.1882L25.344 37.5788Z" fill="#111111" stroke="#111111" stroke-width="0.5"/>
</svg>
