<svg width="96" height="77" viewBox="0 0 96 77" fill="none" xmlns="http://www.w3.org/2000/svg">
<rect x="3" y="74" width="41" height="24" rx="1" transform="rotate(-90 3 74)" stroke="#111111" stroke-width="4.5"/>
<rect width="41" height="24" rx="1" transform="matrix(4.37114e-08 1 1 -4.37114e-08 36 3)" stroke="#111111" stroke-width="4.5"/>
<rect width="30" height="24" rx="1" transform="matrix(4.37114e-08 1 1 -4.37114e-08 69 3)" stroke="#111111" stroke-width="4.5"/>
<rect x="3" y="23" width="20" height="24" rx="1" transform="rotate(-90 3 23)" stroke="#111111" stroke-width="4.5"/>
<rect width="20" height="24" rx="1" transform="matrix(4.37114e-08 1 1 -4.37114e-08 36 54)" stroke="#111111" stroke-width="4.5"/>
<rect width="31" height="24" rx="1" transform="matrix(4.37114e-08 1 1 -4.37114e-08 69 43)" stroke="#111111" stroke-width="4.5"/>
</svg>
